<svg width="62" height="80" viewBox="0 0 62 80" fill="none" xmlns="http://www.w3.org/2000/svg">
<path d="M12.4832 7.59045L13.7411 11.7774C13.5931 11.8949 13.4973 12.0733 13.4973 12.2779C13.4973 12.6348 13.7846 12.922 14.1415 12.922C14.4984 12.922 14.7856 12.6348 14.7856 12.2779C14.7856 11.9428 14.5288 11.6686 14.1981 11.6381L12.9533 7.49034C14.8378 10.0756 17.5015 12.1996 17.5015 12.1996L16.5178 14.7283C16.5178 14.7283 23.1856 38.2264 35.1849 53.3507C32.2863 53.5466 27.6641 66.0682 27.6641 66.0682C25.5533 48.0714 13.9021 15.5682 13.9021 15.5682L11.7956 13.7011C12.2961 12.0907 12.4441 9.00495 12.4876 7.58609L12.4832 7.59045Z" fill="#FF882E"/>
<path d="M56.4461 42.496C56.4461 42.496 37.8225 41.1599 38.1446 41.9477C43.5197 54.9959 61.1988 80 61.1988 80C61.1988 80 49.4867 68.2052 42.0094 60.3362C40.2598 58.4647 28.7174 45.4513 20.9659 20.5168C36.6212 38.7879 56.4461 42.496 56.4461 42.496Z" fill="#2C5680"/>
<path d="M16.8486 8.5262C17.4904 8.5262 18.0107 8.00592 18.0107 7.36413C18.0107 6.72233 17.4904 6.20206 16.8486 6.20206C16.2069 6.20206 15.6866 6.72233 15.6866 7.36413C15.6866 8.00592 16.2069 8.5262 16.8486 8.5262Z" fill="#FF882E"/>
<path d="M8.16142 14.2364C8.80321 14.2364 9.3235 13.7162 9.3235 13.0744C9.3235 12.4326 8.80321 11.9123 8.16142 11.9123C7.51963 11.9123 6.99936 12.4326 6.99936 13.0744C6.99936 13.7162 7.51963 14.2364 8.16142 14.2364Z" fill="#FF882E"/>
<path d="M10.0111 3.15108C10.8813 3.15108 11.5867 2.44569 11.5867 1.57554C11.5867 0.705393 10.8813 0 10.0111 0C9.14098 0 8.43559 0.705393 8.43559 1.57554C8.43559 2.44569 9.14098 3.15108 10.0111 3.15108Z" fill="#FF882E"/>
<path d="M10.0111 8.19977C10.4727 8.19977 10.8468 7.82564 10.8468 7.36413C10.8468 6.90261 10.4727 6.52848 10.0111 6.52848C9.54963 6.52848 9.17551 6.90261 9.17551 7.36413C9.17551 7.82564 9.54963 8.19977 10.0111 8.19977Z" fill="#2C5680"/>
<path d="M14.9945 2.95522C15.3767 2.95522 15.6865 2.64539 15.6865 2.2632C15.6865 1.88101 15.3767 1.57118 14.9945 1.57118C14.6123 1.57118 14.3025 1.88101 14.3025 2.2632C14.3025 2.64539 14.6123 2.95522 14.9945 2.95522Z" fill="#2C5680"/>
<path d="M47.6587 71.8873C47.6587 71.8873 32.5039 63.2827 0.988739 65.3196C0.988739 65.3196 24.8699 58.4125 47.6587 71.8873Z" fill="#FF882E"/>
<path d="M32.1644 9.1921L38.3795 19.3548L26.811 19.6725L20.2695 9.82318L32.1644 9.1921Z" fill="#2C5680"/>
<path d="M27.0287 24.8082C30.6871 24.8082 33.6529 21.8424 33.6529 18.184C33.6529 14.5255 30.6871 11.5597 27.0287 11.5597C23.3702 11.5597 20.4044 14.5255 20.4044 18.184C20.4044 21.8424 23.3702 24.8082 27.0287 24.8082Z" fill="#2C5680"/>
<path d="M35.7203 19.2808L34.815 28.3858H36.4819L35.7203 19.2808Z" fill="#2C5680"/>
</svg>
