<svg width="60" height="50" viewBox="0 0 60 50" fill="none" xmlns="http://www.w3.org/2000/svg">
<g clip-path="url(#clip0_313_79)">
<path d="M34.0763 53.3565C22.1206 38.2331 15.477 14.7362 15.477 14.7362L16.4571 12.2076C16.4571 12.2076 13.8031 10.0881 11.9254 7.49864L13.1657 11.6462C13.4952 11.6766 13.7511 11.9465 13.7511 12.2859C13.7511 12.6428 13.4649 12.93 13.1093 12.93C12.7537 12.93 12.4675 12.6428 12.4675 12.2859C12.4675 12.0814 12.5629 11.9029 12.7103 11.7854L11.4571 7.59874C11.4137 9.01752 11.2663 12.0988 10.7676 13.7134L12.8664 15.5805C12.8664 15.5805 23.8291 46.2714 26.379 64.5196C11.6262 61.9519 0 65.3248 0 65.3248C31.405 63.288 46.5004 71.8921 46.5004 71.8921C39.9306 67.9969 33.2741 65.8035 27.1292 64.6589C28.4345 61.3774 31.791 53.5176 34.0763 53.3609V53.3565Z" fill="white"/>
<path d="M15.8023 8.53008C16.4397 8.53008 16.9601 8.01219 16.9601 7.36808C16.9601 6.72397 16.4441 6.20607 15.8023 6.20607C15.1604 6.20607 14.6444 6.72397 14.6444 7.36808C14.6444 8.01219 15.1604 8.53008 15.8023 8.53008Z" fill="white"/>
<path d="M7.15091 14.24C7.79037 14.24 8.30876 13.7198 8.30876 13.078C8.30876 12.4363 7.79037 11.916 7.15091 11.916C6.51145 11.916 5.99306 12.4363 5.99306 13.078C5.99306 13.7198 6.51145 14.24 7.15091 14.24Z" fill="white"/>
<path d="M8.99393 3.15091C9.86123 3.15091 10.5637 2.44587 10.5637 1.57545C10.5637 0.705038 9.86123 0 8.99393 0C8.12663 0 7.42411 0.705038 7.42411 1.57545C7.42411 2.44587 8.12663 3.15091 8.99393 3.15091Z" fill="white"/>
<path d="M8.99393 8.20368C9.45377 8.20368 9.82654 7.82957 9.82654 7.36808C9.82654 6.90659 9.45377 6.53248 8.99393 6.53248C8.53409 6.53248 8.16132 6.90659 8.16132 7.36808C8.16132 7.82957 8.53409 8.20368 8.99393 8.20368Z" fill="white"/>
<path d="M13.9592 2.95942C14.3408 2.95942 14.6487 2.65042 14.6487 2.26744C14.6487 1.88445 14.3408 1.57545 13.9592 1.57545C13.5776 1.57545 13.2697 1.88445 13.2697 2.26744C13.2697 2.65042 13.5776 2.95942 13.9592 2.95942Z" fill="white"/>
<path d="M19.3452 18.1874C19.3452 19.3755 19.6618 20.4896 20.2082 21.4558C27.9271 45.7709 39.1587 58.4877 40.8803 60.3373C48.3304 68.2059 60 80 60 80C60 80 42.3851 54.9973 37.0295 41.9497C36.7086 41.162 55.2645 42.4981 55.2645 42.4981C55.2645 42.4981 38.2957 39.3124 23.3955 24.2977C24.1804 24.6284 25.0434 24.8112 25.9497 24.8112C29.15 24.8112 31.817 22.522 32.4198 19.4886L34.5967 19.4277L33.7121 28.3843H35.3686L34.6227 19.4277L37.2593 19.3537L31.0668 9.1916L19.2151 9.82265L21.5091 13.2869C20.1821 14.4968 19.3452 16.2376 19.3452 18.183V18.1874Z" fill="white"/>
</g>
<defs>
<clipPath id="clip0_313_79">
<rect width="60" height="50" fill="white"/>
</clipPath>
</defs>
</svg>
